<?xml version="1.0" encoding="UTF-8"?>
<svg version="1.1" xmlns="http://www.w3.org/2000/svg" width="692" height="697">
<path d="M0 0 C228.36 0 456.72 0 692 0 C692 230.01 692 460.02 692 697 C463.64 697 235.28 697 0 697 C0 466.99 0 236.98 0 0 Z " fill="#F6F6F6" transform="translate(0,0)"/>
<path d="M0 0 C8.60258554 5.8989158 11.55735125 14.12325071 13.875 24 C14.78928467 29.35666284 15.03098385 34.51592602 15.04858398 39.92944336 C15.055271 40.79543655 15.06195801 41.66142975 15.06884766 42.55366516 C15.08283319 44.42350332 15.09474754 46.2933579 15.10479546 48.16322136 C15.12130332 51.12747579 15.1445436 54.0916084 15.16969299 57.05580139 C15.24020731 65.48009096 15.300561 73.90442888 15.35180664 82.32885742 C15.38368264 87.4917155 15.42497361 92.65442989 15.47200203 97.8171711 C15.4879625 99.77824881 15.50031137 101.73935951 15.50890923 103.70048332 C15.52112973 106.447524 15.54530596 109.19422942 15.57202148 111.94116211 C15.5729052 113.14387253 15.5729052 113.14387253 15.57380676 114.37088013 C15.72057382 125.82061188 19.44991558 133.94928165 27.5234375 141.9609375 C28.21695312 142.63382813 28.91046875 143.30671875 29.625 144 C30.30304688 144.67289063 30.98109375 145.34578125 31.6796875 146.0390625 C35.66537855 149.96413467 39.76814533 153.71183163 43.99951172 157.36962891 C46.74031738 159.75222461 49.40287901 162.21508017 52.0625 164.6875 C53.18740127 165.73057524 54.31240427 166.77354077 55.4375 167.81640625 C56.28828125 168.6055542 56.28828125 168.6055542 57.15625 169.41064453 C58.84907572 170.9760274 60.54832117 172.53409377 62.25 174.08984375 C95.83603211 204.82367395 95.83603211 204.82367395 97.1484375 218.94140625 C97.43617913 229.20050214 95.63332389 235.05187936 88.8125 242.625 C79.66356621 251.11068486 67.60578557 255.4646532 56.21289062 260.05664062 C54.02787619 260.93831312 51.84919956 261.83391508 49.671875 262.734375 C43.63431188 265.21390092 37.62318624 267.55435842 31.31640625 269.26171875 C28.49201474 270.11581474 25.76233492 271.15110095 23.00512695 272.19946289 C19.58675879 273.48414246 16.13546581 274.67262215 12.6875 275.875 C-10.56100312 283.05111871 -10.56100312 283.05111871 -26.7265625 300.0078125 C-28.22433306 303.18081458 -29.65741412 306.37054499 -31.06054688 309.5859375 C-33.19066072 314.4168012 -35.41889318 319.20349919 -37.625 324 C-38.57969694 326.08320968 -39.53412919 328.1665407 -40.48828125 330.25 C-69.15466617 392.78001702 -69.15466617 392.78001702 -86.125 400 C-91.79905198 401.7371849 -96.99461229 401.68476748 -102.625 399.875 C-127.49719118 386.55061187 -143.41907706 358.41015764 -159.0859375 335.71484375 C-171.56017712 316.89728992 -171.56017712 316.89728992 -191.125 307 C-194.7164409 306.38800559 -198.32081956 305.93523166 -201.9375 305.5 C-203.50661133 305.30664062 -203.50661133 305.30664062 -205.10742188 305.109375 C-212.76819689 304.19900364 -220.43066153 303.54703204 -228.125 303 C-240.52622615 302.11618542 -252.81651169 300.7471984 -265.125 299 C-266.36926758 298.82815186 -266.36926758 298.82815186 -267.63867188 298.65283203 C-276.77107126 297.36026359 -284.97456931 295.55339298 -293.125 291 C-294.23875 290.38125 -295.3525 289.7625 -296.5 289.125 C-301.42947112 285.13447576 -304.77708437 280.24942699 -306.125 274 C-307.78107138 256.99569565 -297.64630609 242.14533691 -288.33544922 228.75244141 C-286.94888768 226.74503142 -285.58542345 224.72285524 -284.22265625 222.69921875 C-278.66288966 214.46856706 -272.97920519 206.35338897 -267.0625 198.375 C-264.74936714 195.25046753 -262.43633545 192.12586243 -260.125 189 C-259.55765137 188.23316895 -258.99030273 187.46633789 -258.40576172 186.67626953 C-247.01589429 171.20144243 -241.93199794 160.13444965 -244.890625 140.59375 C-245.86032886 134.70816535 -246.9859298 128.85472304 -248.125 123 C-248.476562 121.14087066 -248.82685432 119.2815007 -249.17578125 117.421875 C-250.2851291 111.53158889 -251.41792722 105.64591857 -252.55908203 99.76171875 C-253.44591616 95.17991692 -254.29747951 90.59298356 -255.125 86 C-255.33253906 84.91460937 -255.54007813 83.82921875 -255.75390625 82.7109375 C-257.03293511 75.2156495 -257.35819372 67.84463585 -257.4375 60.25 C-257.45514404 59.29150146 -257.47278809 58.33300293 -257.4909668 57.34545898 C-257.48143285 47.29927524 -255.38788381 38.2953074 -248.125 31 C-238.70493445 23.82790464 -228.54684834 23.84089391 -217.125 25 C-203.90737741 27.27669487 -190.78998132 30.60067946 -178.125 35 C-175.04712088 35.99645962 -171.96109053 36.96680279 -168.875 37.9375 C-168.04581055 38.19837402 -167.21662109 38.45924805 -166.36230469 38.72802734 C-164.70653719 39.2483839 -163.05061703 39.76825497 -161.39453125 40.28759766 C-159.43927888 40.90134835 -157.48515444 41.51869028 -155.53125 42.13671875 C-152.40280146 43.11629484 -149.26696901 44.06475215 -146.125 45 C-144.90167969 45.37382812 -143.67835938 45.74765625 -142.41796875 46.1328125 C-127.1924162 50.63412882 -117.64507979 49.54129345 -103.69140625 42.19140625 C-95.30542646 37.62473941 -87.17055496 32.62463048 -79 27.6875 C-67.55627655 20.77427019 -55.94570439 14.24504395 -44.125 8 C-43.16835449 7.49170654 -43.16835449 7.49170654 -42.19238281 6.97314453 C-38.8767455 5.2209708 -35.53224723 3.56619279 -32.125 2 C-31.26777344 1.59007812 -30.41054688 1.18015625 -29.52734375 0.7578125 C-20.66185321 -3.02862676 -8.9069095 -4.43840929 0 0 Z " fill="#1F6FE9" transform="translate(511.125,211)"/>
<path d="M0 0 C228.36 0 456.72 0 692 0 C692 2.31 692 4.62 692 7 C464.63 7 237.26 7 3 7 C3 234.7 3 462.4 3 697 C2.01 697 1.02 697 0 697 C0 466.99 0 236.98 0 0 Z " fill="#161717" transform="translate(0,0)"/>
<path d="M0 0 C6.58288129 3.62940107 11.4241919 8.79904189 16.22265625 14.4375 C17.90970017 16.41686908 17.90970017 16.41686908 20.375 18.27734375 C22.69295039 20.13170406 24.39668682 21.96365846 26.3125 24.21484375 C28.42188025 26.68869575 30.35874843 28.68046744 32.875 30.77734375 C35.37309711 32.85909134 37.28496068 34.82063087 39.375 37.27734375 C42.30986301 40.72289878 45.35315217 43.4445531 48.875 46.27734375 C52.33370939 49.56311767 55.42414448 53.04400365 58.4453125 56.7265625 C59.98981807 58.5241615 59.98981807 58.5241615 62.875 60.27734375 C62.875 60.93734375 62.875 61.59734375 62.875 62.27734375 C63.535 62.27734375 64.195 62.27734375 64.875 62.27734375 C66.42578125 63.88671875 66.42578125 63.88671875 68.1875 66.02734375 C70.18261699 68.38446134 71.92647464 70.3172366 74.375 72.21484375 C79.98774139 76.8453554 84.34201474 82.21835247 85.11328125 89.5390625 C85.32554842 96.4768474 84.22009712 102.50941132 79.484375 107.84375 C73.65829117 112.97990285 68.52392116 114.59935555 60.94921875 114.87109375 C52.82776134 113.30252764 46.79115424 107.78353367 41.13964844 102.07543945 C40.06707794 101.01579231 40.06707794 101.01579231 38.97283936 99.93473816 C36.63313015 97.61756485 34.30828917 95.28613114 31.984375 92.953125 C30.35062725 91.32461814 28.71636162 89.69663069 27.081604 88.06913757 C23.66587733 84.66379231 20.25769925 81.25110738 16.85449219 77.83325195 C12.50656484 73.46813872 8.13862173 69.12370082 3.76455307 64.78480244 C0.38750835 61.42978478 -2.97769079 58.06307808 -6.33959198 54.69289207 C-7.94484115 53.08682636 -9.55390758 51.48456606 -11.16693878 49.8863163 C-13.42597663 47.64482136 -15.6682961 45.3877774 -17.90722656 43.1262207 C-18.89698486 42.1540007 -18.89698486 42.1540007 -19.90673828 41.16213989 C-25.67781116 35.27261569 -30.19364422 28.57285995 -30.6875 20.15234375 C-30.28044567 13.31811575 -27.73798556 8.46762983 -22.6875 3.90234375 C-16.41008914 -1.31183974 -7.75692431 -2.63792463 0 0 Z " fill="#8BB2EF" transform="translate(127.125,101.72265625)"/>
<path d="M0 0 C1.17949219 -0.04898438 2.35898437 -0.09796875 3.57421875 -0.1484375 C11.05960072 0.89967241 16.50134959 6.11605075 21.66503906 11.33935547 C22.53497498 12.20140594 22.53497498 12.20140594 23.42248535 13.08087158 C25.31525503 14.9605628 27.19698405 16.85086414 29.078125 18.7421875 C30.4018862 20.06392476 31.7260922 21.38521666 33.05072021 22.70608521 C35.81573253 25.46669085 38.57528742 28.23260779 41.33105469 31.00244141 C44.85355093 34.54204506 48.38936878 38.06798538 51.92938614 41.59005547 C54.66296133 44.31276245 57.38931705 47.04260858 60.1135788 49.7746315 C61.41426543 51.07731086 62.71716074 52.37778899 64.0223465 53.67596054 C65.84812511 55.49407289 67.66393391 57.32160998 69.47753906 59.15185547 C70.01163391 59.67987762 70.54572876 60.20789978 71.0960083 60.75192261 C76.24941629 65.99273292 79.88433283 71.187581 79.875 78.8125 C79.64032576 85.86081939 77.68398441 89.93290858 72.8203125 94.8984375 C68.14009059 99.09366232 63.71459561 100.67403588 57.5 100.8125 C56.03626953 100.87244141 56.03626953 100.87244141 54.54296875 100.93359375 C47.33155182 99.68663774 41.85992197 94.36845971 36.85229492 89.31884766 C36.26097778 88.73439377 35.66966064 88.14993988 35.0604248 87.54777527 C33.1302676 85.63574941 31.21122276 83.71302466 29.29296875 81.7890625 C27.94431776 80.44497839 26.59529726 79.10126496 25.2459259 77.75790405 C22.42949181 74.95037312 19.61876298 72.13727916 16.81176758 69.3203125 C13.22137307 65.71840575 9.61532525 62.13264165 6.0046339 58.55109596 C3.21885569 55.78369158 0.44247612 53.00700573 -2.33127403 50.22755051 C-3.65702136 48.90165025 -4.98585943 47.57883266 -6.31788063 46.25923538 C-8.17978475 44.41226882 -10.02840586 42.5529228 -11.87426758 40.68994141 C-12.42130844 40.15256851 -12.9683493 39.61519562 -13.53196716 39.0615387 C-18.53160947 33.96469467 -21.11518912 28.74660231 -21.125 21.4375 C-20.92906143 14.89805018 -19.5365908 10.33416931 -14.96875 5.58984375 C-10.1162506 1.24109959 -6.57794117 0.18489348 0 0 Z " fill="#8BB2EF" transform="translate(276.6875,57.625)"/>
<path d="M0 0 C0.97066406 -0.06058594 1.94132812 -0.12117188 2.94140625 -0.18359375 C12.88668151 1.58322051 20.25014562 9.62323489 27.1171875 16.48046875 C28.1018737 17.45480637 29.08691731 18.42878291 30.07229614 19.40242004 C32.1212384 21.43207589 34.16217456 23.46939581 36.19824219 25.51196289 C38.78862899 28.10835609 41.40331128 30.67867075 44.02528191 33.24311352 C46.0622875 35.24289247 48.08279831 37.25874415 50.09918594 39.27929115 C51.51560334 40.6915007 52.94753951 42.08809135 54.37985229 43.48417664 C61.50288505 50.70877818 65.69423982 57.71352284 65.625 68.0625 C64.63933138 74.95232367 60.98185204 79.6233149 55.6171875 83.8828125 C50.07918389 87.19634604 43.710662 87.36592798 37.4375 86.4375 C32.60850988 84.51221636 29.09297501 81.61256646 25.375 78.0625 C24.87162109 77.59328125 24.36824219 77.1240625 23.84960938 76.640625 C20.64490959 73.63906918 17.52998856 70.55472847 14.4375 67.4375 C13.6125 66.6125 12.7875 65.7875 11.9375 64.9375 C-5.0625 47.9375 -5.0625 47.9375 -7.421875 45.5703125 C-9.03303765 43.96503001 -10.66731898 42.38290007 -12.3125 40.8125 C-19.14126574 33.60435838 -21.04501387 28.03727508 -20.97265625 18.03125 C-20.2805871 11.96740606 -17.50538794 7.96400811 -12.93359375 4.0390625 C-8.78305275 1.10559743 -4.9932431 0.21483314 0 0 Z " fill="#8BB2EF" transform="translate(132.5625,287.5625)"/>
<path d="M0 0 C5.30550476 2.79603683 9.29311208 6.35044119 13.44921875 10.62890625 C14.12533203 11.28568359 14.80144531 11.94246094 15.49804688 12.61914062 C21.45679299 18.63602084 26.18507125 25.40546923 26.69921875 34.06640625 C26.29216442 40.90063425 23.74970431 45.75112017 18.69921875 50.31640625 C12.99770422 55.05223503 7.43287928 55.37947484 0.23046875 55.2578125 C-3.80663098 54.8449273 -5.86444655 53.64767171 -8.86328125 50.94140625 C-9.87390625 50.13703125 -10.88453125 49.33265625 -11.92578125 48.50390625 C-14.71239812 46.0730277 -17.31007641 43.61619228 -19.86328125 40.94140625 C-20.84554687 39.91660156 -20.84554687 39.91660156 -21.84765625 38.87109375 C-28.78983638 31.39684872 -31.60946553 25.51446365 -31.3359375 15.16796875 C-30.35481875 8.47041431 -26.55642344 3.8730758 -21.23828125 -0.12109375 C-14.32329886 -3.90849823 -6.95750696 -3.20278905 0 0 Z " fill="#8BB2EF" transform="translate(70.86328125,218.05859375)"/>
<path d="M0 0 C3.77854232 2.97260254 7.09583773 6.30021773 10.4375 9.75 C11.32115234 10.61882812 12.20480469 11.48765625 13.11523438 12.3828125 C19.21763981 18.56410835 22.46190813 23.15717318 23.4375 31.9375 C23.09774987 38.86840269 20.17096723 44.27819692 15.125 48.9375 C9.82729332 53.15225007 5.17043302 54.18773497 -1.4609375 54.4609375 C-10.21684755 52.87140306 -15.76390728 46.84886056 -21.75 40.75 C-22.58660156 39.92886719 -23.42320312 39.10773438 -24.28515625 38.26171875 C-30.24218039 32.26669126 -35.57586218 26.37248925 -35.5625 17.5 C-35.25417696 10.06941474 -31.89559598 5.54329963 -26.5625 0.625 C-18.09362005 -6.1062048 -9.04783894 -4.88451593 0 0 Z " fill="#8BB2EF" transform="translate(391,162)"/>
<path d="M0 0 C0.66 0.99 1.32 1.98 2 3 C-4.15034169 11.44646925 -4.15034169 11.44646925 -8 15 C-6.62712658 11.30123909 -4.93644547 8.0485524 -2.875 4.6875 C-2.33617187 3.80449219 -1.79734375 2.92148437 -1.2421875 2.01171875 C-0.83226562 1.34785156 -0.42234375 0.68398438 0 0 Z " fill="#397DE1" transform="translate(223,439)"/>
<path d="M0 0 C2.97 0 5.94 0 9 0 C9 0.66 9 1.32 9 2 C12.3 1.67 15.6 1.34 19 1 C13.30022937 3.84988532 8.53561381 3.71175124 2.4375 2 C1.633125 1.67 0.82875 1.34 0 1 C0 0.67 0 0.34 0 0 Z " fill="#4984DF" transform="translate(406,609)"/>
<path d="M0 0 C-0.75 1.9375 -0.75 1.9375 -2 4 C-3.33333333 4.33333333 -4.66666667 4.66666667 -6 5 C-7.28436734 6.9837767 -7.28436734 6.9837767 -8 9 C-8.66 9 -9.32 9 -10 9 C-8.5124715 4.98367305 -4.56813239 0 0 0 Z " fill="#99B9E9" transform="translate(269,59)"/>
<path d="M0 0 C0.66 0.33 1.32 0.66 2 1 C0.9024777 3.99324263 0.32317108 4.84610901 -2.625 6.25 C-3.40875 6.4975 -4.1925 6.745 -5 7 C-5 7.66 -5 8.32 -5 9 C-5.66 9 -6.32 9 -7 9 C-5.44499019 5.18315774 -2.96404505 2.80804268 0 0 Z " fill="#D9E8F9" transform="translate(494,498)"/>
<path d="M0 0 C0.33 0 0.66 0 1 0 C1.76681614 9.73004484 1.76681614 9.73004484 -0.11328125 12.84375 C-1.5 14.1875 -1.5 14.1875 -4 16 C-3.79503906 15.43152344 -3.59007812 14.86304688 -3.37890625 14.27734375 C-1.70907331 9.4915546 -0.53623064 5.04056799 0 0 Z " fill="#E2EEFB" transform="translate(212,192)"/>
<path d="M0 0 C0.33 0.66 0.66 1.32 1 2 C0.07421875 3.83984375 0.07421875 3.83984375 -1.3125 5.9375 C-1.76238281 6.62714844 -2.21226562 7.31679688 -2.67578125 8.02734375 C-3.11277344 8.67832031 -3.54976563 9.32929688 -4 10 C-4.99 11.485 -4.99 11.485 -6 13 C-6.66 13 -7.32 13 -8 13 C-6.53181332 9.89257577 -4.79975 7.09528261 -2.875 4.25 C-2.33617187 3.45078125 -1.79734375 2.6515625 -1.2421875 1.828125 C-0.62730469 0.92320312 -0.62730469 0.92320312 0 0 Z " fill="#407DE0" transform="translate(263,383)"/>
<path d="M0 0 C0.33 0 0.66 0 1 0 C1.3125 2.1875 1.3125 2.1875 1 5 C-1.5 7.8125 -1.5 7.8125 -4 10 C-4.66 9.67 -5.32 9.34 -6 9 C-5.02501855 7.4972763 -4.04490611 5.99788037 -3.0625 4.5 C-2.51722656 3.6646875 -1.97195312 2.829375 -1.41015625 1.96875 C-0.94480469 1.3190625 -0.47945312 0.669375 0 0 Z " fill="#3D7EE0" transform="translate(232,426)"/>
<path d="M0 0 C0.33 0 0.66 0 1 0 C1.3125 2.25 1.3125 2.25 1 5 C-1.5 7.3125 -1.5 7.3125 -4 9 C-2.94124926 5.59687262 -1.99097846 2.98646769 0 0 Z " fill="#D1E3F9" transform="translate(486,507)"/>
<path d="M0 0 C1.98 0.66 3.96 1.32 6 2 C6.33 3.65 6.66 5.3 7 7 C5.83040013 6.02433888 4.66438823 5.044375 3.5 4.0625 C2.8503125 3.51722656 2.200625 2.97195313 1.53125 2.41015625 C1.0259375 1.94480469 0.520625 1.47945313 0 1 C0 0.67 0 0.34 0 0 Z " fill="#A0BEE9" transform="translate(141,348)"/>
<path d="M0 0 C1.17219543 0.78345715 2.33763668 1.57702836 3.5 2.375 C4.47453125 3.03628906 4.47453125 3.03628906 5.46875 3.7109375 C5.9740625 4.13632813 6.479375 4.56171875 7 5 C7 5.66 7 6.32 7 7 C7.66 7.33 8.32 7.66 9 8 C8.01 8 7.02 8 6 8 C5.67 7.34 5.34 6.68 5 6 C4.34 5.71125 3.68 5.4225 3 5.125 C1 4 1 4 0.375 1.9296875 C0.189375 0.97449219 0.189375 0.97449219 0 0 Z " fill="#98B8E7" transform="translate(183,157)"/>
<path d="M0 0 C1.98 1.65 3.96 3.3 6 5 C3.37886292 5 1.49064888 4.68707555 -1 4 C-0.67 2.68 -0.34 1.36 0 0 Z " fill="#E9F2FA" transform="translate(332,522)"/>
<path d="M0 0 C1.9375 0.3125 1.9375 0.3125 4 1 C4.33 1.99 4.66 2.98 5 4 C5.66 4.66 6.32 5.32 7 6 C6.01 6 5.02 6 4 6 C0 1.54285714 0 1.54285714 0 0 Z " fill="#9CBBE9" transform="translate(122,328)"/>
<path d="M0 0 C0.99 0.33 1.98 0.66 3 1 C1.824375 1.928125 1.824375 1.928125 0.625 2.875 C-1.96837647 4.89858661 -1.96837647 4.89858661 -4 7 C-3.6875 4.625 -3.6875 4.625 -3 2 C-2.01 1.34 -1.02 0.68 0 0 Z " fill="#E8F2FB" transform="translate(47,218)"/>
</svg>
